<svg
 xmlns="http://www.w3.org/2000/svg"
 xmlns:xlink="http://www.w3.org/1999/xlink"
 width="47px" height="47px">
<path fill-rule="evenodd"  fill="rgb(255, 255, 255)"
 d="M46.044,44.975 L44.630,46.389 L32.784,34.543 C29.337,37.708 24.753,39.656 19.703,39.656 C9.011,39.656 0.344,30.996 0.344,20.312 C0.344,9.629 9.011,0.969 19.703,0.969 C30.395,0.969 39.063,9.629 39.063,20.312 C39.063,25.230 37.211,29.705 34.187,33.117 L46.044,44.975 ZM19.703,2.844 C10.047,2.844 2.219,10.665 2.219,20.312 C2.219,29.960 10.047,37.781 19.703,37.781 C29.359,37.781 37.187,29.960 37.187,20.312 C37.187,10.665 29.359,2.844 19.703,2.844 Z"/>
</svg>